<svg width="2492" height="1510" viewBox="0 0 2492 1510" xmlns="http://www.w3.org/2000/svg"><title>59886D59-9739-47EE-A8F2-88326C839649</title><g stroke-width="15.12" stroke="#1D33FF" fill="none" fill-rule="evenodd" opacity=".05"><path d="M1664.85 864.767l709.022-419.716L1664.85 27.41"/><path d="M1402.89 129.995c97.762-172.918 256.763-172.04 355.144 1.965 98.377 174.001 98.875 455.233 1.107 628.146-97.758 172.917-256.764 172.035-355.14-1.966-98.382-174.001-98.88-455.228-1.112-628.145zm623.93 1236.522c-69.442-41.03-109.608 27.216-179.05-13.81-69.448-41.035-29.282-109.282-98.734-150.307-69.438-41.03-109.61 27.216-179.047-13.815-69.447-41.03-29.286-109.277-98.728-150.308-69.448-41.03-109.61 27.216-179.057-13.81-69.447-41.03-29.276-109.277-98.723-150.302-69.448-41.036-109.614 27.21-179.062-13.82-69.447-41.03-29.28-109.277-98.733-150.313m1014.612 799.156c-69.453-41.036-29.281-109.283-98.734-150.308-69.442-41.03-109.609 27.216-179.051-13.81-69.443-41.03-29.281-109.277-98.729-150.313-69.442-41.025-109.609 27.221-179.046-13.81-69.448-41.03-29.286-109.277-98.729-150.302-69.447-41.03-109.609 27.21-179.061-13.815-69.453-41.036-29.281-109.282-98.734-150.313-69.452-41.03-109.619 27.216-179.071-13.82"/><path d="M2491.229 848.963c-69.448-41.03-29.281-109.277-98.729-150.303-69.447-41.03-109.609 27.216-179.056-13.815-69.448-41.035-29.286-109.277-98.739-150.313-69.447-41.03-109.614 27.216-179.061-13.82" stroke-dasharray="20.16000080108643,20.16000080108643"/><path d="M241.694 1316.693l203.307-123.192m-323.198 51.746l203.308-123.187M.616 1168.382l203.312-123.187"/></g></svg>